<svg width="180" height="180" viewBox="0 0 180 180" fill="none" xmlns="http://www.w3.org/2000/svg">
<path d="M35.1562 36.5625L90 9.84375L144.844 36.5625L90 63.2812L35.1562 36.5625Z" fill="#0077C2"/>
<path d="M58.3594 51.3281V68.9062L90 84.375L121.641 68.9062V51.3281L90 66.7969L58.3594 51.3281Z" fill="#0077C2"/>
<path d="M132.188 30.3984V44.4609L137.812 48.6797L135.703 62.7422C139.219 64.1484 141.328 67.6641 141.328 71.1797C141.328 76.1016 137.812 80.3203 133.594 81.7266V31.1016L132.188 30.3984Z" fill="#0077C2"/>
<path d="M90 91.4062L141.328 75.2344V155.391L90 177.188L38.6719 155.391V75.2344L90 91.4062ZM150.469 162.422L90 188.438L29.5312 162.422V81.5625H33.75V157.5L90 181.406L146.25 157.5V81.5625H150.469V162.422Z" fill="#0077C2"/>

<path d="M90 101.25L47.1094 87.1875V152.578L90 170.859L132.891 152.578V87.1875L90 101.25ZM138.516 78.75L90 94.2188L41.4844 78.75V149.062L90 169.453L138.516 149.062V78.75Z" fill="#F4F6F8"/>
<path d="M112.5 112.5H104.062L101.25 109.688V104.062H69.6094V149.062H112.5V112.5ZM118.125 115.312L106.875 104.062H118.125V115.312ZM106.875 118.125V109.688H115.312L106.875 118.125ZM101.25 106.875L104.062 109.688H112.5V146.25H72.4219V106.875H101.25Z" fill="#F4F6F8"/>
<path d="M106.875 122.344H78.0469V126.562H106.875V122.344ZM106.875 132.188H78.0469V136.406H106.875V132.188ZM98.4375 142.031H78.0469V146.25H98.4375V142.031ZM98.4375 112.5H78.0469V116.719H98.4375V112.5Z" fill="#F4F6F8"/>
</svg>